<svg xmlns="http://www.w3.org/2000/svg" viewBox="0 0 120 120" width="120" height="120">
  <defs>
    <linearGradient id="bg" x1="0" y1="0" x2="0" y2="1">
      <stop offset="0%" stop-color="#545456"/>
      <stop offset="100%" stop-color="#2c2c2e"/>
    </linearGradient>
  </defs>
  <rect width="120" height="120" rx="26" fill="url(#bg)"/>
  <rect x="16" y="12" width="88" height="22" rx="6" fill="#3a3a3c"/>
  <text x="96" y="29" text-anchor="end" fill="white" font-family="system-ui, -apple-system, Helvetica, sans-serif" font-size="16" font-weight="300">1,234</text>
  <circle cx="30" cy="48" r="8.5" fill="#a5a5a5"/>
  <circle cx="52" cy="48" r="8.5" fill="#a5a5a5"/>
  <circle cx="74" cy="48" r="8.5" fill="#a5a5a5"/>
  <circle cx="96" cy="48" r="8.5" fill="#ff9f0a"/>
  <circle cx="30" cy="68" r="8.5" fill="#505050"/>
  <circle cx="52" cy="68" r="8.5" fill="#505050"/>
  <circle cx="74" cy="68" r="8.5" fill="#505050"/>
  <circle cx="96" cy="68" r="8.5" fill="#ff9f0a"/>
  <circle cx="30" cy="88" r="8.5" fill="#505050"/>
  <circle cx="52" cy="88" r="8.5" fill="#505050"/>
  <circle cx="74" cy="88" r="8.5" fill="#505050"/>
  <circle cx="96" cy="88" r="8.5" fill="#ff9f0a"/>
  <rect x="21.5" y="99.5" width="39" height="17" rx="8.5" fill="#505050"/>
  <circle cx="74" cy="108" r="8.5" fill="#505050"/>
  <circle cx="96" cy="108" r="8.5" fill="#ff9f0a"/>
</svg>
