<svg xmlns="http://www.w3.org/2000/svg" viewBox="0 0 120 120">
  <defs>
    <linearGradient id="folderGrad" x1="0%" y1="0%" x2="0%" y2="100%">
      <stop offset="0%" style="stop-color:#5AC8FA;stop-opacity:1" />
      <stop offset="100%" style="stop-color:#007AFF;stop-opacity:1" />
    </linearGradient>
  </defs>
  <rect x="4" y="4" width="112" height="112" rx="26" ry="26" fill="url(#folderGrad)"/>
  <!-- Folder back -->
  <rect x="24" y="38" width="72" height="50" rx="6" fill="rgba(255,255,255,0.3)"/>
  <!-- Folder tab -->
  <path d="M24 44 L24 38 Q24 32 30 32 L48 32 Q52 32 54 36 L56 40 L90 40 Q96 40 96 46 L96 44 Z" fill="rgba(255,255,255,0.4)"/>
  <!-- Folder front -->
  <rect x="24" y="44" width="72" height="44" rx="6" fill="white" opacity="0.9"/>
  <!-- Code lines -->
  <rect x="34" y="54" width="24" height="3" rx="1.5" fill="#007AFF" opacity="0.6"/>
  <rect x="34" y="61" width="36" height="3" rx="1.5" fill="#007AFF" opacity="0.4"/>
  <rect x="34" y="68" width="18" height="3" rx="1.5" fill="#007AFF" opacity="0.3"/>
  <rect x="34" y="75" width="30" height="3" rx="1.5" fill="#007AFF" opacity="0.2"/>
</svg>
