<svg xmlns="http://www.w3.org/2000/svg" viewBox="0 0 120 120">
  <defs>
    <clipPath id="squircle">
      <rect x="4" y="4" width="112" height="112" rx="26" ry="26"/>
    </clipPath>
  </defs>
  <rect x="4" y="4" width="112" height="112" rx="26" ry="26" fill="#1C1C1E"/>
  <g clip-path="url(#squircle)">
    <path fill="#ffffff" d="M60 22C39.01 22 22 39.01 22 60c0 16.79 10.89 31.03 26 36.07 1.9.35 2.6-.82 2.6-1.83 0-.91-.03-3.91-.05-7.09-10.58 2.3-12.81-4.49-12.81-4.49-1.73-4.39-4.22-5.56-4.22-5.56-3.45-2.36.26-2.31.26-2.31 3.81.27 5.82 3.91 5.82 3.91 3.39 5.81 8.89 4.13 11.06 3.16.34-2.46 1.33-4.13 2.41-5.08-8.45-.96-17.33-4.22-17.33-18.8 0-4.15 1.49-7.55 3.92-10.21-.39-.96-1.7-4.83.37-10.07 0 0 3.2-1.02 10.47 3.9 3.04-.84 6.3-1.27 9.54-1.28 3.24.01 6.5.44 9.54 1.28 7.27-4.92 10.46-3.9 10.46-3.9 2.08 5.24.77 9.11.38 10.07 2.44 2.66 3.91 6.06 3.91 10.21 0 14.62-8.9 17.83-17.38 18.77 1.37 1.18 2.59 3.5 2.59 7.06 0 5.1-.05 9.21-.05 10.46 0 1.02.69 2.21 2.62 1.83C87.13 91.01 98 76.78 98 60c0-20.99-17.01-38-38-38z"/>
  </g>
</svg>
